# xmcd CD database file
#
# Track frame offsets:
#	150
#	16331
#	28526
#	42978
#	58901
#	71423
#	85208
#	93913
#	108444
#	120978
#	135914
#	148861
#	163276
#	175730
#	188867
#	200594
#	211366
#	227103
#	237273
#	254005
#
# Disc length: 3545 seconds
#
# Revision: 3
# Processed by: cddbd v1.5.2PL0 Copyright (c) Steve Scherf et al.
# Submitted via: CDex 1.70beta2
#
DISCID=1c0dd714
DTITLE=The Rat Pack - The Rat Pack CD 4
DYEAR=2004
DGENRE=Jazz
TTITLE0=Frank Sinatra - Close To You
TTITLE1=Dean Martin and Frank Sinatra - The One I Love
TTITLE2=Sammy Davies Jr. - In The Morning
TTITLE3=Frank Sinatra - The One I Love
TTITLE4=Dean Martin - Bella Bimba
TTITLE5=Frank Sinatra - Night And Day
TTITLE6=Dean Martin - Night Train To Memphis
TTITLE7=Frank Sinatra - Imagination
TTITLE8=Dean Martin - If
TTITLE9=Frank Sinatra - Blue Skies
TTITLE10=Dean Martin - Santa Lucia
TTITLE11=Frank Sinatra - Stardust
TTITLE12=Sammy Davies Jr. - What I've Got In Mind
TTITLE13=Dean Martin - Beside You
TTITLE14=Frank Sinatra - Sentimental Baby
TTITLE15=Dean Martin - Oh Marie
TTITLE16=Frank Sinatra - Mood Indigo
TTITLE17=Dean Martin - Pennies From Heaven
TTITLE18=Frank Sinatra - This Love Of Mine
TTITLE19=Dean Martin - Bonnie Nuit
EXTD=YEAR: 2004
EXTT0=
EXTT1=
EXTT2=
EXTT3=
EXTT4=
EXTT5=
EXTT6=
EXTT7=
EXTT8=
EXTT9=
EXTT10=
EXTT11=
EXTT12=
EXTT13=
EXTT14=
EXTT15=
EXTT16=
EXTT17=
EXTT18=
EXTT19=
PLAYORDER=
